<?xml version="1.0" standalone="no"?>
<!DOCTYPE svg PUBLIC "-//W3C//DTD SVG 20010904//EN"
 "http://www.w3.org/TR/2001/REC-SVG-20010904/DTD/svg10.dtd">
<svg version="1.0" xmlns="http://www.w3.org/2000/svg"
 width="300.000000pt" height="300.000000pt" viewBox="0 0 300.000000 300.000000"
 preserveAspectRatio="xMidYMid meet">
<metadata>
Created by potrace 1.11, written by Peter Selinger 2001-2013
</metadata>
<g transform="translate(0.000000,300.000000) scale(0.100000,-0.100000)"
fill="#000000" stroke="none">
<path d="M1265 2984 c-38 -7 -86 -16 -105 -20 -19 -3 -75 -19 -125 -36 -478
-160 -845 -542 -980 -1019 -54 -193 -71 -453 -41 -624 24 -132 25 -138 45
-205 71 -243 198 -456 380 -638 386 -384 909 -526 1446 -392 473 119 877 496
1038 970 14 41 29 91 33 110 4 19 9 40 10 45 37 149 45 408 18 555 -8 47 -18
99 -21 115 -10 60 -76 242 -116 320 -155 302 -382 529 -682 682 -78 39 -224
94 -295 109 -19 4 -39 9 -45 10 -143 35 -423 44 -560 18z m470 -180 c497 -82
920 -478 1052 -984 31 -120 42 -357 23 -506 -36 -294 -205 -604 -440 -810
-166 -145 -391 -257 -615 -306 -38 -8 -132 -13 -255 -13 -206 0 -253 6 -395
52 -317 102 -586 317 -748 598 -62 106 -113 228 -144 345 -31 116 -43 371 -24
513 55 413 336 800 721 992 255 128 532 167 825 119z"/>
<path d="M1110 2214 c-58 -25 -109 -83 -126 -142 -62 -213 180 -377 347 -234
156 133 65 393 -137 392 -27 -1 -65 -8 -84 -16z"/>
<path d="M1945 2211 c-170 -77 -176 -321 -10 -403 141 -70 314 35 315 191 1
169 -158 279 -305 212z"/>
<path d="M803 1313 c21 -310 244 -595 545 -697 148 -51 334 -59 477 -20 253
67 468 263 560 508 26 70 60 258 51 283 -4 9 -29 13 -93 13 l-88 0 -16 -101
c-24 -148 -76 -248 -184 -355 -126 -125 -266 -184 -440 -184 -174 0 -315 59
-441 185 -113 112 -169 233 -190 408 l-5 47 -91 0 -91 0 6 -87z"/>
</g>
</svg>
