<?xml version="1.0" standalone="no"?>
<!DOCTYPE svg PUBLIC "-//W3C//DTD SVG 20010904//EN"
 "http://www.w3.org/TR/2001/REC-SVG-20010904/DTD/svg10.dtd">
<svg version="1.0" xmlns="http://www.w3.org/2000/svg"
 width="512.000000pt" height="512.000000pt" viewBox="0 0 512.000000 512.000000"
 preserveAspectRatio="xMidYMid meet">
<metadata>
Created by potrace 1.11, written by Peter Selinger 2001-2013
</metadata>
<g transform="translate(0.000000,512.000000) scale(0.100000,-0.100000)"
fill="#000000" stroke="none">
<path d="M2315 5109 c-1352 -138 -2362 -1292 -2312 -2639 10 -262 47 -468 127
-710 212 -646 674 -1182 1275 -1483 274 -138 517 -212 840 -259 137 -20 522
-17 665 5 406 63 756 196 1070 407 621 417 1016 1056 1122 1810 17 125 17 515
0 640 -81 579 -331 1088 -729 1486 -398 398 -895 647 -1458 730 -122 18 -477
26 -600 13z m623 -358 c466 -84 861 -290 1192 -621 332 -332 531 -714 622
-1195 20 -105 23 -152 23 -375 0 -223 -3 -270 -23 -375 -138 -728 -570 -1303
-1217 -1620 -236 -116 -473 -185 -739 -216 -146 -17 -472 -7 -616 20 -939 174
-1643 880 -1812 1817 -20 113 -23 161 -23 379 1 217 4 266 23 370 100 533 351
974 746 1312 308 264 672 435 1066 502 177 30 172 29 420 26 172 -2 251 -8
338 -24z"/>
<path d="M1989 3660 c-112 -19 -201 -85 -251 -188 -29 -59 -33 -76 -33 -147 0
-71 4 -89 33 -147 38 -77 92 -130 171 -166 74 -35 191 -36 264 -4 136 61 208
172 208 320 0 132 -74 246 -196 302 -68 32 -129 41 -196 30z"/>
<path d="M3359 3660 c-107 -18 -201 -92 -251 -198 -27 -57 -30 -70 -26 -150 4
-104 29 -163 96 -230 66 -67 139 -96 237 -96 65 0 90 4 136 26 79 36 133 89
171 166 29 59 33 76 33 147 -1 66 -6 91 -28 140 -64 139 -217 219 -368 195z"/>
<path d="M1475 2378 c-42 -23 -86 -74 -96 -112 -14 -51 9 -180 61 -338 153
-466 461 -756 920 -865 89 -21 137 -26 315 -30 182 -5 226 -2 330 15 387 67
679 264 870 586 111 189 206 490 192 613 -11 104 -117 168 -220 134 -45 -15
-93 -69 -105 -118 -5 -21 -20 -81 -32 -133 -46 -198 -127 -355 -248 -482 -164
-171 -356 -256 -634 -278 -348 -28 -660 74 -849 278 -129 139 -222 334 -264
554 -18 97 -44 142 -96 168 -42 22 -112 26 -144 8z"/>
</g>
</svg>
